<?xml version="1.0" standalone="no"?>
<!DOCTYPE svg PUBLIC "-//W3C//DTD SVG 20010904//EN"
 "http://www.w3.org/TR/2001/REC-SVG-20010904/DTD/svg10.dtd">
<svg version="1.0" xmlns="http://www.w3.org/2000/svg"
 width="186.000000pt" height="186.000000pt" viewBox="0 0 186.000000 186.000000"
 preserveAspectRatio="xMidYMid meet">

<g transform="translate(0.000000,186.000000) scale(0.100000,-0.100000)"
fill="#000000" stroke="none">
<path d="M1480 1720 c0 -27 5 -50 10 -50 6 0 10 -25 10 -55 l0 -55 -407 0
-408 0 105 -103 c58 -56 175 -169 260 -250 l155 -147 317 0 318 0 0 228 c0
278 2 272 -101 272 l-69 0 -1 33 c-2 48 2 72 12 75 5 2 9 26 9 53 l0 49 -105
0 -105 0 0 -50z"/>
<path d="M525 1509 c-28 -28 -152 -148 -277 -266 -236 -224 -249 -241 -210
-276 43 -39 52 -32 386 287 l156 149 22 -19 c12 -10 121 -112 242 -226 171
-162 225 -208 246 -208 34 0 50 17 50 53 0 23 -22 49 -122 146 -250 239 -433
411 -438 411 -3 0 -28 -23 -55 -51z"/>
<path d="M424 1167 c-88 -84 -192 -182 -232 -219 l-72 -68 0 -395 0 -395 145
0 145 0 0 260 0 260 160 0 160 0 0 -260 0 -260 145 0 145 0 0 409 0 409 -49
44 c-27 24 -125 116 -218 205 l-169 162 -160 -152z m223 -97 c34 -21 73 -85
73 -121 0 -47 -39 -107 -84 -128 -50 -25 -75 -26 -119 -7 -54 23 -80 59 -85
119 -5 65 14 109 61 137 42 26 112 26 154 0z"/>
<path d="M1200 966 c-14 -42 -40 -66 -82 -75 l-33 -7 -3 -397 -2 -397 380 0
380 0 0 455 0 455 -314 0 -314 0 -12 -34z m216 -268 c-1 -90 -3 -227 -4 -305
l-2 -143 -75 0 -75 0 0 305 0 305 79 0 78 0 -1 -162z m244 -143 l0 -305 -75 0
-75 0 0 305 0 305 75 0 75 0 0 -305z"/>
</g>
</svg>
